# xmcd
#
# Track frame offsets:
#	150
#	17010
#	35678
#	57893
#	74815
#	87408
#	101748
#	115605
#	127020
#	145933
#
# Disc length: 2185 seconds
#
# Revision: 8
# Processed by: cddbd v1.5.2PL0 Copyright (c) Steve Scherf et al.
# Submitted via: EZCDAudioConverter 6.0.2.1
#
DISCID=9108870a
DTITLE=Vince Gill - I Still Believe In You
DYEAR=1992
DGENRE=Country
TTITLE0=Don't Let Our Love Start Slippin' Away
TTITLE1=No Future In the Past
TTITLE2=Nothing Like A Woman
TTITLE3=Tryin' To Get Over You
TTITLE4=Say Hello
TTITLE5=One More Last Chance
TTITLE6=Under These Conditions
TTITLE7=Pretty Words
TTITLE8=Love Never Broke Anyone's Heart
TTITLE9=I Still Believe In You
EXTD=
EXTT0=
EXTT1=
EXTT2=
EXTT3=
EXTT4=
EXTT5=
EXTT6=
EXTT7=
EXTT8=
EXTT9=
PLAYORDER=
